Coordinates
version=1
nRows=17
nColumns=36
inDegrees=yes

Units are S.I. units (second, meters, Newtons, ...)
If the header above contains a line with 'inDegrees', this indicates whether rotational values are in degrees (yes) or radians (no).

endheader
time	pelvis_tilt	pelvis_list	pelvis_rotation	pelvis_tx	pelvis_ty	pelvis_tz	hip_flexion_r	hip_adduction_r	hip_rotation_r	knee_angle_r	knee_angle_r_beta	ankle_angle_r	subtalar_angle_r	mtp_angle_r	hip_flexion_l	hip_adduction_l	hip_rotation_l	knee_angle_l	knee_angle_l_beta	ankle_angle_l	subtalar_angle_l	mtp_angle_l	lumbar_extension	lumbar_bending	lumbar_rotation	arm_flex_r	arm_add_r	arm_rot_r	elbow_flex_r	pro_sup_r	arm_flex_l	arm_add_l	arm_rot_l	elbow_flex_l	pro_sup_l
      0.00000000	      0.13587625	      1.22218555	      3.67715188	     -0.13839052	      0.91621525	      0.04408544	      4.01678727	     -8.99487832	    -10.61184585	      8.77111230	      0.15308479	      6.17245476	     -2.39125123	     -6.64495576	      5.86294458	     -7.60737318	    -15.23191571	     10.87943073	      0.18988189	     -1.34792311	     -6.15575722	     -6.64495576	     -6.22307265	     -1.17612672	     -3.96980051	     -2.48638313	    -12.52409785	      6.88835419	     29.32082969	     75.62531283	    -11.15726048	    -11.07574906	      0.85230362	    117.12076822	     92.98770574
      0.01666670	     -0.44539902	      0.69365665	      2.79446572	     -0.13787099	      0.91850375	      0.04377234	      5.22786733	     -8.29536454	    -10.86048573	      8.80747826	      0.15371949	      7.77129022	     -1.09699717	     -6.67230045	      6.51272259	     -8.32961301	    -18.38629530	     11.03610462	      0.19261636	     -1.03461221	     -5.75325793	     -6.67230045	     -4.48527124	     -0.31129990	     -3.24579271	     -3.83396478	    -13.58565985	      7.75732054	     30.65897768	     76.28300456	    -11.73266364	     -9.23019011	      0.37468883	    118.88828270	     93.97637916
      0.03333330	     -0.85355412	      0.69239752	      2.15534573	     -0.13717412	      0.91883365	      0.04414796	      5.66407009	     -8.03200880	    -11.11732154	      8.41870207	      0.14693407	      6.83407358	     -1.90436010	     -6.82258783	      7.03420843	     -8.42348584	    -19.62755623	     11.23301417	      0.19605308	     -1.47589328	     -5.83879568	     -6.82258783	     -3.76993211	     -0.13303991	     -2.90023664	     -3.96053056	    -14.36638863	      9.19120260	     30.57515755	     78.68089646	    -13.02416165	     -8.13035881	     -1.07118032	    120.18964089	     96.05207046
      0.05000000	     -0.97864361	      0.88209421	      1.80810615	     -0.13610263	      0.91954817	      0.04488664	      5.58159931	     -8.14785124	    -11.29965676	      7.83657224	      0.13677399	      6.70003231	     -1.67412360	     -6.88896813	      6.73388455	     -8.29665035	    -20.54169302	     10.63445217	      0.18560620	     -1.80412028	     -5.69494373	     -6.88896813	     -3.43842629	     -0.38084107	     -2.25102641	     -5.09153087	    -14.19073514	      8.12030336	     31.21465690	     77.26122278	    -13.09190081	     -7.90556068	     -0.68104389	    120.41860856	     94.43602776
      0.06666670	     -1.06825182	      0.89243201	      1.57307603	     -0.13701346	      0.91981845	      0.04311247	      5.63825778	     -8.18278521	    -11.42066948	      7.60554002	      0.13274171	      6.63565973	     -1.53175945	     -6.96278415	      6.64857846	     -8.25115149	    -21.01477408	     10.34411181	      0.18053881	     -1.52008230	     -5.29816259	     -6.96278415	     -3.33144402	     -0.23330713	     -2.15763042	     -5.42544474	    -13.72970832	      6.07208852	     31.26565274	     76.87641439	    -13.36195141	     -7.49311728	     -1.10015771	    120.51081162	     93.52163982
      0.08333330	     -1.29672340	      1.01058999	      1.39883038	     -0.13651763	      0.91689984	      0.04456185	      5.87212870	     -8.25287344	    -11.20761233	      7.46536588	      0.13029521	      6.89438920	     -1.50706110	     -7.16342848	      6.88144516	     -8.15676097	    -21.12122596	     10.36589213	      0.18091895	     -1.38235783	     -5.42479728	     -7.16342848	     -3.12239875	     -0.33484468	     -1.61822857	     -6.46188686	    -12.70056039	      0.37923748	     32.25925381	     83.40809790	    -13.23047459	     -7.67156675	     -0.82639556	    120.65621267	     96.75800586
      0.10000000	     -1.31537964	      1.09340969	      1.31282519	     -0.13688371	      0.91864122	      0.04369967	      5.88227564	     -8.36322508	    -11.01730034	      7.34976338	      0.12827757	      6.79687591	     -1.62248004	     -7.21275445	      6.87796921	     -8.06131922	    -21.30126160	     10.38529031	      0.18125751	     -1.35823837	     -5.51303493	     -7.21275445	     -3.00789923	     -0.36072684	     -1.42272620	     -6.61019482	    -12.37835687	     -0.67116379	     32.37276694	     81.42911179	    -13.19363848	     -7.87069255	     -0.36242584	    120.14805137	     94.61693030
      0.11666670	     -1.37511349	      1.18694755	      1.23660303	     -0.13676625	      0.91791746	      0.04364419	      5.94608783	     -8.47144259	    -10.94037213	      7.27716257	      0.12701045	      6.77937347	     -1.57476715	     -7.24938276	      6.95549714	     -7.94557315	    -21.37722810	     10.45601739	      0.18249193	     -1.42122266	     -5.63609695	     -7.24938276	     -2.87822616	     -0.46782934	     -1.69532584	     -6.26759369	    -11.90968930	     -2.09457339	     32.00989835	     81.47109905	    -13.54559363	     -7.92363150	     -0.64120667	    120.14065013	     94.34840289
      0.13333330	     -1.26439105	      1.18712384	      1.16192353	     -0.13612655	      0.91697016	      0.04409870	      5.82138121	     -8.46384786	    -10.80343980	      7.26169024	      0.12674040	      6.71648387	     -1.77956033	     -7.25759089	      6.84976207	     -7.96377748	    -21.44754112	     10.53574722	      0.18388348	     -1.56211485	     -5.84248089	     -7.25759089	     -2.94073365	     -0.50456249	     -1.67278410	     -6.21317716	    -11.70984157	     -2.55771894	     31.96613182	     81.57168218	    -13.74375279	     -8.04293837	     -0.39836718	    120.02257324	     94.26826231
      0.15000000	     -1.47489154	      1.25219100	      0.96247803	     -0.13608467	      0.91739636	      0.04255587	      6.13627646	     -8.60122366	    -10.56295754	      7.37456424	      0.12871043	      6.46552851	     -2.02481061	     -7.31893538	      7.06521653	     -7.86118221	    -21.40643661	     10.64968775	      0.18587212	     -2.02278619	     -6.49159519	     -7.31893538	     -2.60727722	     -0.53223707	     -0.87725477	     -6.93156308	    -11.58450137	     -3.60897551	     32.88083612	     78.39557560	    -13.37139915	     -8.43173623	      0.89326609	    119.82449285	     89.84858226
      0.16666670	     -1.26709230	      1.23068316	      0.86776435	     -0.13596698	      0.91873899	      0.04246247	      5.86408338	     -8.60867705	    -10.59739668	      7.23503845	      0.12627524	      6.32608272	     -1.90084065	     -7.37341175	      6.79238993	     -7.86155065	    -21.46814546	     10.61077234	      0.18519291	     -1.78507267	     -6.07279465	     -7.37341175	     -2.80140315	     -0.51593131	     -1.47288498	     -6.10955083	    -11.31035296	     -4.79590755	     32.10957041	     84.18496631	    -13.62939180	     -8.21473166	     -0.13105985	    119.69291300	     96.83405240
      0.18333330	     -1.22290102	      1.31199748	      0.75696478	     -0.13605459	      0.92044853	      0.04266436	      5.80875952	     -8.72170757	    -10.60812310	      7.16471555	      0.12504788	      6.04826441	     -1.86152147	     -7.39648565	      6.66345958	     -7.72685685	    -21.41829728	     10.49457528	      0.18316489	     -2.17526142	     -6.29368352	     -7.39648565	     -2.83736149	     -0.59143967	     -0.89090086	     -6.45910340	    -11.12794945	     -5.33139837	     32.73355032	     81.21158678	    -12.97109411	     -8.64524547	      0.72184185	    119.22022649	     94.04229172
      0.20000000	     -1.09245205	      1.31400004	      0.63022490	     -0.13554421	      0.91798177	      0.04193950	      5.66386028	     -8.73484931	    -10.36946056	      7.10432710	      0.12399390	      5.90101173	     -1.89384042	     -7.41285064	      6.45110715	     -7.70614433	    -21.43440022	     10.46768775	      0.18269562	     -2.08904586	     -6.11714527	     -7.41285064	     -2.90287934	     -0.54937810	     -0.84791706	     -6.19091988	    -11.03028938	     -5.53397339	     32.54418700	     79.85086373	    -12.46315038	     -8.64759333	      1.24292976	    118.71183290	     92.44955080
      0.21666670	     -1.09851939	      1.38080531	      0.55658934	     -0.13560533	      0.91876914	      0.04166490	      5.65167689	     -8.83079980	    -10.26902588	      7.06650956	      0.12333386	      5.78908030	     -1.77073924	     -7.41486369	      6.38267029	     -7.60016230	    -21.43193040	     10.38445763	      0.18124298	     -2.27495743	     -6.13941355	     -7.41486369	     -2.81718675	     -0.61434850	     -0.86845982	     -6.15957481	    -10.93436424	     -5.54527287	     32.83297570	     79.54891609	    -12.31927817	     -8.76969279	      1.46442418	    118.65961996	     92.20631175
      0.23333330	     -1.14545116	      1.40231177	      0.44221228	     -0.13513631	      0.91793501	      0.04245227	      5.71460109	     -8.83481225	    -10.02139563	      7.05183900	      0.12307781	      5.78312336	     -1.84437536	     -7.44352268	      6.37341408	     -7.58792288	    -21.51436706	     10.33395613	      0.18036156	     -2.24324476	     -6.11164112	     -7.44352268	     -2.69181965	     -0.63891313	     -1.50004724	     -5.47562068	    -11.04127660	     -4.49218535	     32.56045155	     83.11840002	    -12.88864631	     -8.41568277	      0.46095855	    118.87420826	     96.08324635
      0.25000000	     -1.21866392	      1.42202096	      0.29473456	     -0.13502499	      0.91721338	      0.04261466	      5.82708829	     -8.83205813	     -9.85848968	      7.07313259	      0.12344945	      5.78875847	     -1.95077053	     -7.44658740	      6.38931733	     -7.57508312	    -21.61092655	     10.26856547	      0.17922028	     -2.35638744	     -6.13718632	     -7.44658740	     -2.58786508	     -0.64678794	     -1.27431638	     -5.59135904	    -10.94102276	     -4.78986732	     33.10200010	     82.43519948	    -12.71583306	     -8.46146822	      0.88202595	    118.84014592	     95.51926410
      0.26666670	     -1.19668402	      1.46770751	      0.23827073	     -0.13466786	      0.91992992	      0.04119186	      5.76934293	     -8.90807825	     -9.94875074	      6.98933338	      0.12198688	      5.88720281	     -1.61932683	     -7.45905769	      6.30194857	     -7.49288964	    -21.71523919	     10.15133020	      0.17717414	     -2.34054721	     -5.88677950	     -7.45905769	     -2.62950490	     -0.67052272	     -1.26064278	     -5.54957941	    -10.74487757	     -5.50454358	     33.48013822	     82.85144697	    -12.79125174	     -8.39170817	      0.88329078	    118.87699696	     96.13440001
